<svg width="20" height="20" viewBox="0 0 20 20" fill="none" xmlns="http://www.w3.org/2000/svg">
<g clip-path="url(#clip0_47_97)">
<path d="M5.8335 8.33325V18.3333" stroke="#9810FA" stroke-width="1.66667" stroke-linecap="round" stroke-linejoin="round"/>
<path d="M12.4998 4.90008L11.6665 8.33341H16.5248C16.7836 8.33341 17.0388 8.39366 17.2702 8.50937C17.5016 8.62508 17.7029 8.79309 17.8582 9.00008C18.0134 9.20707 18.1183 9.44737 18.1646 9.70194C18.2109 9.95651 18.1973 10.2184 18.1248 10.4667L16.1832 17.1334C16.0822 17.4796 15.8717 17.7837 15.5832 18.0001C15.2947 18.2165 14.9438 18.3334 14.5832 18.3334H3.33317C2.89114 18.3334 2.46722 18.1578 2.15466 17.8453C1.8421 17.5327 1.6665 17.1088 1.6665 16.6667V10.0001C1.6665 9.55805 1.8421 9.13413 2.15466 8.82157C2.46722 8.50901 2.89114 8.33341 3.33317 8.33341H5.63317C5.94324 8.33325 6.24712 8.24659 6.51063 8.08318C6.77415 7.91977 6.98686 7.68609 7.12484 7.40841L9.99984 1.66675C10.3928 1.67161 10.7796 1.76522 11.1313 1.94058C11.4831 2.11593 11.7906 2.3685 12.031 2.67942C12.2714 2.99033 12.4384 3.35155 12.5196 3.73608C12.6008 4.12062 12.594 4.51853 12.4998 4.90008Z" stroke="#9810FA" stroke-width="1.66667" stroke-linecap="round" stroke-linejoin="round"/>
</g>
<defs>
<clipPath id="clip0_47_97">
<rect width="20" height="20" fill="white"/>
</clipPath>
</defs>
</svg>
